<svg xmlns="http://www.w3.org/2000/svg" width="46.351" height="42.796" viewBox="0 0 46.351 42.796">
  <g id="Сгруппировать_40813" data-name="Сгруппировать 40813" transform="translate(-2.137 -3.2)">
    <path id="Контур_4572" data-name="Контур 4572" d="M44.648,9.519,40.191,5.061a.891.891,0,0,0-1.261,0L19.945,24.046l-6.5-6.5a.892.892,0,0,0-1.261,0L7.724,22a.891.891,0,0,0,0,1.261L19.315,34.853a.891.891,0,0,0,1.261,0L44.648,10.78a.891.891,0,0,0,0-1.261Z" transform="translate(3.578 1.075)" fill="#00c853"/>
    <path id="Контур_4573" data-name="Контур 4573" d="M26.687,38.449a4.455,4.455,0,0,1-6.3,0L8.792,26.858A4.456,4.456,0,0,1,8.8,20.547L13.25,16.1a4.455,4.455,0,0,1,6.3,0l3.981,3.98L36.221,7.391a21.412,21.412,0,1,0,8.327,13.2Z" fill="#00c853"/>
  </g>
</svg>
